<svg enable-background="new 0 0 32 32" viewBox="0 0 32 32" xmlns="http://www.w3.org/2000/svg"><circle cx="16" cy="16" fill="#ffca05" r="16"/><path d="m16.5032654 26.1360455c-.1766281-.9882431-1.0114822-2.3023052-.0964108-3.1592178.6524448-.6109219 1.8868408-.5951958 2.6118145-.1686954.6458416.3799152.8553848.8975143 1.7239437 1.3377972.1316586.0667477.2688026.1259422.4102821.1688843 2.7179832.8251801 3.1215305-3.6054363 2.8638306-5.2839832-.2810211-1.8294849-1.4581947-3.6486731-3.5606213-2.9396057-1.1552296.3896046-1.1941223 1.5969734-1.7464104 2.4935589-.4395199.7135124-1.277462.971096-2.076149.9669647-.9474602-.0049095-1.6260204-.377079-2.5681591.0578976-.9214439.4254246-2.2088909 1.4548264-2.7687998 3.9383755-.5809326 2.5767498-1.2581453 4.9008732-2.1545916 6.9109287 2.0786123.987669 4.4035578 1.541048 6.8579941 1.541048.2249813 0 .4485512-.0058384.6712666-.0150356.0668812-.7006512.1049194-1.4029999.1123428-2.1027565.0132066-1.2512629-.0599822-2.5129969-.2803324-3.7461607z" fill="#fff"/><path d="m26.4358501 26.4219303c-.6883163-2.4006462-.2470894-4.7379684-.5549488-7.1817608-.1903267-1.5125027-.3879128-3.0765457-1.005373-4.5589333-.6695271-1.6702757-1.5546398-3.475338-4.1691151-4.742033-.8306503-.4024315-1.7601433-.6588745-2.6841488-.8591623-1.6741772-.3628979-3.1443615-.8200397-4.6831675-1.5647564-1.4160824-.6853428-2.7606859-1.5070577-4.0800943-2.3614411-.3618306-.2343192-2.4566697-.7809329-4.0235948.4294252 2.997757.5832157 5.7794666 2.8174825 6.498003 3.3035226.1896696.1282911.431963.2773352.6224203.4495945.1289978.1166296.2341795.2439108.2830915.3825006.1009445.2860155-.0839939.5098963-.4652386.5146189-.4040737.0049925-.7707329-.3464327-1.0260353-.5789204-.4821882-.4391165-.9538326-.8862305-1.4488001-1.3156643-.801545-.6955256-1.9147285-1.4109415-3.3134669-2.1032318l2.7238951 2.6645131c1.337739 1.445178 1.7215776 3.1191006 2.3202162 5.0378532.0579119.2127781.1170073.4193077.1749201.6197109.2350998.8178797.5210161 2.359314 1.5111141 3.2189445-1.4273825.620409-3.1031027 2.0901909-3.8307381 5.3178082-.5432549 2.4095974-1.1549015 4.541153-1.9484978 6.3585835.5774179.372612 1.1804581.7087555 1.8057032 1.0058479.8964462-2.0100555 1.5736589-4.3341789 2.1545916-6.9109287.5599089-2.4835491 1.8473558-3.5129509 2.7687998-3.9383755.9421387-.4349766 1.6206989-.0628071 2.5681591-.0578976.798687.0041313 1.6366291-.2534523 2.076149-.9669647.5522881-.8965855.5911808-2.1039543 1.7464104-2.4935589 2.1024265-.7090673 3.2796001 1.1101208 3.5606213 2.9396057.2577 1.6785469-.1458473 6.1091633-2.8638306 5.2839832-.1414795-.042942-.2786236-.1021366-.4102821-.1688843-.8685589-.4402828-1.0781021-.9578819-1.7239437-1.3377972-.7249737-.4265003-1.9593697-.4422264-2.6118145.1686954-.9150715.8569126-.0802174 2.1709747.0964108 3.1592178.2203503 1.2331638.293539 2.4948978.2803326 3.7461605-.0074234.6997566-.0454617 1.4021053-.1123428 2.1027565 3.9282017-.1621914 7.4904003-1.7402515 10.1903496-4.2378845-.1537002-.4371698-.2975791-.8780591-.4257549-1.3251474z"/><path d="m24.0167255 19.0308304c-.2810211-1.8294849-1.4581947-3.6486731-3.5606213-2.9396057-1.1552296.3896046-1.1941223 1.5969734-1.7464104 2.4935589-.4395199.7135124-1.277462.971096-2.076149.9669647-.9474602-.0049095-1.6260204-.377079-2.5681591.0578976-.4213524.1945305-.9191122.5160141-1.3889494 1.0443878.0406008-.0010262.0875931.0192299.1217384-.0031605 2.0518723-1.3454914 5.6098661 1.7980328 6.2204943 2.157259.6458416.3799152.8553848.8975143 1.7239437 1.3377972.1316586.0667477.2688026.1259422.4102821.1688843 2.7179834.82518 3.1215307-3.6054364 2.8638307-5.2839833z" fill="#f7941e"/></svg>