<?xml version="1.0" encoding="utf-8"?>
<!-- Generator: Adobe Illustrator 24.0.1, SVG Export Plug-In . SVG Version: 6.00 Build 0)  -->
<!DOCTYPE svg PUBLIC "-//W3C//DTD SVG 1.1//EN" "http://www.w3.org/Graphics/SVG/1.1/DTD/svg11.dtd" [
	<!ENTITY ns_extend "http://ns.adobe.com/Extensibility/1.0/">
	<!ENTITY ns_ai "http://ns.adobe.com/AdobeIllustrator/10.0/">
	<!ENTITY ns_graphs "http://ns.adobe.com/Graphs/1.0/">
	<!ENTITY ns_vars "http://ns.adobe.com/Variables/1.0/">
	<!ENTITY ns_imrep "http://ns.adobe.com/ImageReplacement/1.0/">
	<!ENTITY ns_sfw "http://ns.adobe.com/SaveForWeb/1.0/">
	<!ENTITY ns_custom "http://ns.adobe.com/GenericCustomNamespace/1.0/">
	<!ENTITY ns_adobe_xpath "http://ns.adobe.com/XPath/1.0/">
]>
<svg version="1.1" id="Layer_1" xmlns:x="&ns_extend;" xmlns:i="&ns_ai;" xmlns:graph="&ns_graphs;"
	 xmlns="http://www.w3.org/2000/svg" xmlns:xlink="http://www.w3.org/1999/xlink" x="0px" y="0px" width="64px" height="64px"
	 viewBox="0 0 64 64" style="enable-background:new 0 0 64 64;" xml:space="preserve">
<style type="text/css">
	.st0{fill:#FDC811;}
	.st1{fill:#FFFFFF;}
</style>
<metadata>
	<sfw  xmlns="&ns_sfw;">
		<slices></slices>
		<sliceSourceBounds  bottomLeftOrigin="true" height="58.0205078" width="64.0000076" x="-0.0000031" y="2.9897499">
			</sliceSourceBounds>
	</sfw>
</metadata>
<g>
	<path class="st0" d="M63.8865929,58.4517174c-0.064209-0.1586304-0.1344604-0.3146362-0.2086792-0.4636841
		c-0.0001831-0.0001831-0.0003052-0.0004883-0.0003052-0.0006104c-0.5316162-1.0648193-1.3339233-1.8997803-2.4523315-2.5523071
		c-0.2710571-0.1585083-0.5206299-0.2584839-0.6853027-0.3201294c-0.0549316-0.0206299-0.1090088-0.039917-0.1602783-0.0578613
		c-0.0077515-0.2001953,0.0039673-0.4627686,0.0349121-0.7800293c0.2106934-2.1596069-0.7382813-4.1949463-2.6039429-5.5839233
		c-0.7938232-0.5912476-1.6226196-0.9192505-2.2549438-1.1386108c-0.1967163-0.0684204-0.395874-0.1332397-0.5947266-0.1964111
		l-0.2262573-0.0720825c-0.1121826-0.0355225-0.2251587-0.0713501-0.3381958-0.1079102
		c-0.2188721-0.0707397-0.5062256-0.1660767-0.7888794-0.2755127c-0.1769409-0.0686035-0.3384399-0.1370239-0.4943237-0.2097778
		c-0.0632935-0.0296021-0.1240234-0.0592041-0.1904907-0.0925903l-0.0311279-0.0153198
		c-0.0561523-0.0285034-0.111145-0.0571899-0.177124-0.0930176c-0.0033569-0.0018311-0.0151978-0.0083618-0.0185547-0.0101929
		c-0.0493164-0.0270386-0.0975952-0.0541992-0.1508789-0.085144l-0.0109253-0.0062256
		c-0.0505371-0.0297241-0.1000366-0.0599365-0.1481323-0.0901489l-0.0309448-0.0194702
		c-0.0461426-0.0292969-0.09198-0.0588379-0.1352539-0.0878296c-0.0080566-0.0054932-0.019165-0.0130615-0.024292-0.0166016
		c-0.0446167-0.0303345-0.088623-0.0609741-0.1246338-0.0864868l-0.0308228-0.0220337
		c-0.0464478-0.0332031-0.0924072-0.0671997-0.1481323-0.1092529l-0.0189819-0.0145874
		c-0.0477905-0.0362549-0.0956421-0.0731812-0.1432495-0.1109619c-0.0045776-0.0036621-0.0091553-0.0072632-0.0136719-0.0107422
		c-0.0466309-0.0370483-0.0930786-0.0748291-0.1317749-0.1064453l-0.0373535-0.0308228
		c-0.0502319-0.0415649-0.1010742-0.0836182-0.1569214-0.1311035l-0.6625366-0.5750122
		c-0.0718384-0.0629883-0.1455688-0.1276245-0.2214966-0.1939697c-0.1550903-1.5785522,0.2389526-3.4611816,0.5906372-5.1416626
		c0.0846558-0.4046631,0.1669312-0.7979126,0.2410278-1.182251l0.0039673-0.020813
		c0.0157471-0.0822754,0.0307617-0.163147,0.0438232-0.2344971l0.0127563-0.0687866
		c0.0130615-0.0722046,0.0255127-0.1432495,0.0372314-0.2115479l0.0140991-0.0825806
		c0.0106201-0.0628662,0.0203247-0.1246338,0.0320435-0.1991577l0.013916-0.0891113
		c0.0085449-0.0556641,0.0161133-0.1104736,0.0236816-0.1651611l0.0170288-0.1223145
		c0.0065308-0.0501099,0.0122681-0.0992432,0.0178833-0.1484375l0.0155029-0.131897
		c0.0072632-0.0664673,0.0128784-0.1312866,0.0177612-0.1888428l0.0015259-0.015625
		c0.0028687-0.0288696,0.0056152-0.0578613,0.0071411-0.0783081c0.0073853-0.0949097,0.0133057-0.1881104,0.0174561-0.2789917
		c0.0411377-0.9119263-0.0200806-1.8897705-0.1815796-2.9060059c-0.0911865-0.5745239-0.2562256-1.135498-0.4158936-1.6779785
		c-0.3694458-1.2560425-0.5662842-2.0553589-0.1833496-2.5647583c0.0192871-0.0255127,0.0975952-0.0979004,0.1668091-0.1616821
		c0.0540161-0.0497437,0.111145-0.1026001,0.1724243-0.1610107c1.0830078-1.0348511,1.6950073-2.1314087,1.8187256-3.258667
		c0.0074463-0.0671997,0.0129395-0.1304932,0.0171509-0.1890259c0.2223511-0.4417114,0.3158569-0.9445801,0.2553101-1.4295044
		c-0.0614624-0.4869995-0.2731934-0.9196777-0.6118774-1.2507324c-0.3595581-0.3518066-0.8334351-0.5602417-1.3703003-0.6026611
		c-0.1751709-0.0139771-0.3479004,0.0020752-0.5128784,0.0449219c-0.1205444-0.0087891-0.243042-0.0040283-0.3647461,0.0158691
		c-0.0714722,0.0115967-0.1468506,0.0181885-0.2230225,0.0244751V2.9897423H6.4616055v23.7862549
		c-0.3910522,0.0346069-0.7735596,0.0794067-1.1376343,0.1425171c-0.8945923,0.1550903-1.6046751,0.3827515-2.1693723,0.6951904
		c-0.7731934,0.4265137-1.3869629,0.9555664-1.8234863,1.5715332c-0.4298096,0.6056519-0.7392579,1.3666992-0.9462891,2.3269043
		l-0.3648682,1.6920166l1.6670532,0.1755981c-0.1871948,0.1447754-0.3555298,0.2994385-0.5056152,0.4644775
		c-0.7839355,0.861084-1.1813965,1.9453125-1.1813965,3.2224121c0,1.3781128,0.5519409,2.5993652,1.5960693,3.5319824
		c1.0084839,0.9008179,2.4182737,1.357605,4.1900635,1.357605c0.2307129,0,0.453064-0.0140991,0.6754761-0.0280151v4.7807617
		h19.0749512c-0.0008545,0.0014038-0.00177,0.0026855-0.0026245,0.0040894
		c-0.2360229,0.3873901-0.4390869,0.8023682-0.6030273,1.2332764c-0.4520264,1.1856079-0.6237183,2.5264893-0.4966431,3.8775635
		c0.0147095,0.1572876,0.0320435,0.3169556,0.0494995,0.4778442c0.1298828,1.1969604,0.1253662,1.6732788-0.1638184,1.8818359
		c-0.0585938,0.0296021-0.1889648,0.088501-0.2959595,0.1365967c-1.0805664,0.4871216-3.6112061,1.6279297-4.4707031,4.2259521
		c-0.2044678,0.6177368-0.0023193,1.2974854,0.5064697,1.703186c0.508606,0.4058838,1.2162476,0.4519043,1.7732544,0.1150513
		c0.8720703-0.5271606,1.4150391-0.5089111,2.2377319-0.4820557c0.5599365,0.0183716,1.1950073,0.0396118,1.927063-0.1292114
		c0.5365601-0.1236572,1.0228882-0.3366089,1.4456177-0.6206055c0.37677,0.4019165,0.824707,0.7211304,1.335022,0.9436646
		c0.0570679,0.0248413,0.1151733,0.0485229,0.1798706,0.0734253l0.0544434,0.0200195
		c0.0404053,0.0148926,0.0812378,0.02948,0.128418,0.045105l0.0736084,0.0232544
		c0.0378418,0.0116577,0.076355,0.0230713,0.1176758,0.0344238l0.0755615,0.0202026
		c0.0071411,0.0018311,0.0142822,0.0036621,0.0214233,0.0054321c0.0302124,0.0074463,0.0605469,0.0145874,0.0904541,0.0214233
		c0.0377808,0.0084839,0.0759277,0.0168457,0.1046143,0.0223389c0.0297241,0.0060425,0.0600586,0.0115356,0.0977173,0.0178833
		c0.0393066,0.006958,0.0784912,0.0136719,0.1252441,0.0205078c0.0238037,0.003479,0.048584,0.0065308,0.0742188,0.0095215
		c0.1675415,0.0211182,0.3407593,0.032959,0.5062256,0.0352173c0.0717773,0.0020142,0.1411133,0.0009155,0.2376709-0.0016479
		l0.0554199-0.0018311c0.0535889-0.0022583,0.1083374-0.0053101,0.1730347-0.0100098l0.0571899-0.0042725
		c0.0563354-0.0046997,0.1137085-0.0101318,0.1710815-0.0163574l0.06073-0.0073242
		c0.0619507-0.0073853,0.1244507-0.0153198,0.1798706-0.0236206l0.032959-0.005188
		c0.1182251-0.0178833,0.2401123-0.0396118,0.3648682-0.0648193c0.0549316,0.0109253,0.1097412,0.0217285,0.1645508,0.0324707
		c0.2349854,0.0466309,0.4683838,0.0925903,0.7011108,0.1348267c0.003479,0.0007324,0.0150146,0.0028687,0.0184937,0.003479
		l0.0221558,0.0039063c0.0721436,0.0129395,0.1442261,0.0252075,0.2218018,0.038147l0.0655518,0.0109253
		c0.0681763,0.0112305,0.1361694,0.0213623,0.2044678,0.03125l0.0911865,0.0134888
		c0.0637817,0.0089722,0.1276855,0.0168457,0.1941528,0.0250854l0.1046143,0.0127563
		c0.0552368,0.0060425,0.1104736,0.0113525,0.1658936,0.0166626l0.0438232,0.0040894
		c0.0317383,0.0030518,0.0634766,0.0061035,0.0953369,0.008667c0.0569458,0.0045776,0.1138306,0.0078735,0.1707764,0.0112305
		l0.0408325,0.0025635c0.0346069,0.0021362,0.0692139,0.0042725,0.0969849,0.0054932
		c0.0599365,0.0025635,0.1199341,0.0039673,0.187439,0.005127l0.0239868,0.0006104
		c0.038269,0.0009155,0.076355,0.0018311,0.1099243,0.0018311c0.0554199,0.0006104,0.1097412-0.0012207,0.1646729-0.0024414
		l0.0473633-0.0010376c0.038269-0.0006104,0.0764771-0.0015259,0.1140137-0.0030518
		c0.0559692-0.0023804,0.1119995-0.0062256,0.1680298-0.010437l0.0552368-0.0039673
		c0.038269-0.0024414,0.0764771-0.005127,0.1116943-0.0084839c0.0616455-0.0056152,0.123291-0.0133667,0.1848755-0.0212402
		l0.0446167-0.0054932c0.0355225-0.0040894,0.0710449-0.0083618,0.1155396-0.0147095
		c0.0667725-0.0100098,0.1341553-0.0223389,0.2015381-0.0349121l0.0370483-0.0067139
		c0.0326538-0.0054321,0.0653076-0.0112305,0.1052246-0.0194092c0.116272-0.0239868,0.2334595-0.0518799,0.3491211-0.0828857
		c0.2832031-0.0760498,0.5415649-0.1506958,0.7872925-0.2276611c0.3522949,0.1123047,0.7027588,0.2131348,1.0462646,0.3008423
		c0.1727295,0.0443115,0.3447266,0.0854492,0.5145874,0.1234131c0.3949585,0.0881958,0.7937012,0.1619263,1.1853027,0.2194824
		c0.6582642,0.0965576,1.3115845,0.1489258,1.9412231,0.1555786c0.0496216,0.0006104,0.098938,0.0009155,0.1482544,0.0009155
		c1.204895,0,2.3516846-0.1630249,3.4105225-0.4849854c0.3503418-0.1065674,0.6945801-0.2341919,1.0491943-0.3891602
		c0.432251,0.0684204,0.8795776,0.116394,1.3527222,0.1450806c0.0368652,0.0024414,0.0875854,0.0043945,0.1463013,0.0050049
		c0.0059204,0.0001831,0.0117188,0.0001831,0.0176392,0.0001831c0.3439331,0.1296387,0.756958,0.2417603,1.2196045,0.2469482
		c0.6646729,0.0040894,1.2868652-0.2134399,1.7825928-0.6203613c0.0459595,0.0258179,0.0925903,0.0507202,0.1394653,0.074707
		c0.3916016,0.1992798,0.8248291,0.3398438,1.286438,0.4172363c0.107605,0.0180664,0.2197876,0.0330811,0.3314819,0.0443115
		c0.1486206,0.0151978,0.3024902,0.0241699,0.4553833,0.0266113c0.0485229,0.0008545,0.0960693,0.0008545,0.140686,0.0005493
		c0.4095459-0.0032959,0.7401123-0.0496216,0.9535522-0.0895386c0.0684204-0.0131836,0.1051636-0.0216675,0.1051636-0.0216675
		c0.0192871-0.0045776,0.0493164-0.0120239,0.0686035-0.017334c0.3314819-0.0915527,0.6569214-0.2128296,0.9673462-0.3604736
		c0.5327759-0.253479,1.0224609-0.5842285,1.4558105-0.9834595c0.0233765-0.0215454,0.0467529-0.0437012,0.0701294-0.06604
		c0.041748,0.0449219,0.0842285,0.0889893,0.1278076,0.1322021c0.1867065,0.1850586,0.3901978,0.3532104,0.6036377,0.4990845
		c0.2811279,0.192627,0.5858765,0.352478,0.9052734,0.4746704c0.8231201,0.3151245,1.6049805,0.2839966,2.1231689,0.2639771
		l0.0733643-0.0030518c0.1092529-0.0043945,0.2188721-0.0090942,0.3304443-0.0112305
		c0.0553589-0.0010986,0.1105957-0.0014038,0.1661987-0.0009155c0.1033325,0.0013428,0.1917114,0.0066528,0.2703247,0.0162354
		c0.1491699,0.0181885,0.2672729,0.0526733,0.3829346,0.1113892c0.5773926,0.2935791,1.2771606,0.1981201,1.7550049-0.2404175
		C63.9741783,59.7414513,64.1295776,59.0527916,63.8865929,58.4517174z"/>
	<g>
		<path class="st1" d="M60.4411621,56.7769737c-0.9798584-0.571743-1.8240433-0.0855675-1.5735626-2.6509552
			c0.1794052-1.8379517-0.7403564-3.2592278-1.9852257-4.1862373c-1.31847-0.9817963-2.8445282-1.1005592-4.4259949-1.8382416
			c-1.3709526-0.6395264-2.0128593-1.3264847-3.4063187-2.521656c-0.5776367-3.0761223,0.9062233-6.9061813,1.0106735-9.2250023
			c0.0388336-0.8614616-0.0285072-1.7412567-0.1638145-2.5922508c-0.2770538-1.7443695-1.5155182-3.8127117-0.3073921-5.4194317
			c0.1406479-0.1871662,0.2989006-0.3131752,0.5086861-0.5135536c0.6410637-0.6124802,1.2477951-1.3974133,1.3475266-2.3053188
			c0.0233879-0.2118702,0.0203514-0.3843956,0.0327225-0.5085392c0.1721954-0.1934605,0.2744141-0.4899101,0.2425385-0.7451496
			c-0.0161057-0.1276569-0.0655861-0.2450657-0.1566048-0.334074c-0.0911674-0.0890808-0.2236557-0.1498337-0.4059906-0.1642551
			c0.0170555,0.0502148,0.0289497,0.1028423,0.0337067,0.157486c0.0047226,0.0545673,0.002121,0.1111488-0.0097733,0.1691952
			c-0.0179329,0.0869942-0.0569839,0.1773567-0.1245422,0.2692928c-0.0225449,0.0306339-0.0482025,0.0614491-0.0773354,0.0923748
			c0.0060387-0.0320969,0.0087128-0.0635719,0.0081978-0.0944977c-0.0005836-0.0308895-0.0042076-0.0612659-0.0106125-0.09091
			c-0.0191765-0.0890827-0.0628777-0.1724167-0.1207047-0.2490177c-0.0554085-0.0734177-0.1237755-0.1403198-0.1956177-0.2003422
			c-0.0031128-0.0025978-0.0060387-0.0054169-0.009079-0.0079784c-0.284626,0.0462971-0.5699158,0.063242-0.8870773,0.0576801
			c-0.1906815-0.0034409-0.3927422-0.0148964-0.6132851-0.0331593c-0.4404678-0.0363789-0.9540215-0.0995483-1.5947189-0.1777973
			c-1.0897255-0.1330719-2.1983757-0.2166271-3.2764282,0.0431499c-1.5301208,0.36866-2.741539,1.4038181-3.2528229,2.9153461
			c-0.3702316,1.094265-0.4417076,2.2526531-0.6871033,3.3752823c-0.1422958,0.651165-0.8532982,1.8598003-1.9208832,3.1835785
			c-0.367672-0.0414696-0.8005638-0.0529594-1.3188019-0.0213737c-2.3621559,0.1439781-2.7774391-0.0424919-3.1806831-0.1057701
			c-0.1343918-0.0210457-0.2668419-0.046299-0.3951569-0.0759811c-0.040699,0.0420876-0.0794563,0.0871773-0.1137123,0.1345749
			c-0.068367,0.0946808-0.1184349,0.1988411-0.1293411,0.3077202c-0.005455,0.0544586-0.0011711,0.110054,0.0155182,0.1664886
			c-0.2493858-0.2169952-0.2745285-0.4488106-0.219738-0.6461143c0.0078316-0.0281792,0.0172348-0.0555916,0.0278854-0.0822372
			c-0.0144196-0.0050125-0.0300102-0.0091476-0.0442467-0.0142365c-0.1547394-0.0558128-0.2760658-0.061924-0.36866-0.0319138
			s-0.1564941,0.09618-0.1964607,0.1849327c-0.0173836,0.0384293-0.0312538,0.0764542-0.0419426,0.1141891
			c-0.0106125,0.0375862-0.0181885,0.0749168-0.022728,0.1117706c-0.0091476,0.0737114-0.0064774,0.1457024,0.0057106,0.2158966
			c0.0061836,0.0351372,0.0147133,0.0696831,0.0253639,0.1038666c0.0159569,0.0510216,0.0380592,0.1005745,0.0627289,0.1493607
			c0.0187759,0.0370026,0.0395279,0.0734177,0.0624352,0.109066c0.0128479,0.0199432,0.0258408,0.0397072,0.0398216,0.0591049
			c0.1700363,0.2382202,0.5166283,0.728096,1.5778809,1.1742325c-0.3097343,0.0548248-0.943367-0.0483093-1.6541519-0.6471748
			c-0.865818,1.1735764,1.4460144,2.2907906,2.5081482,3.5137367c0.3219948,0.3707428,0.5927162,0.7391472,0.8076591,1.1261063
			c-0.3002205,0.6122589-0.7107849,1.139904-1.0627174,1.4565201c-0.754261,0.6785011-2.0911407,1.5375137-3.8556023,2.7298622
			c-1.7644253,1.1923485-3.0077953,2.5351944-4.0882988,4.3072319c-0.1907539,0.3128815-0.3494453,0.6404419-0.4780521,0.9780655
			c-0.3858986,1.0126495-0.5014763,2.1152229-0.4015617,3.1787071c0.1303635,1.3877144,0.4713917,2.971344-0.8332081,3.8209114
			c-0.5087948,0.3314743-3.329752,1.1476974-4.1195526,3.5347061c1.9743557-1.1934853,3.1289711-0.4520683,4.6199684-0.7956963
			c1.3426247-0.3093681,2.0928974-1.414505,1.9977417-2.6522369c0.0838108,1.3258286,0.5919838,2.5588379,1.7558613,3.0662804
			c0.5278263,0.2300606,1.2010593,0.3274841,2.3362789,0.0499191c1.3663788,0.2586441,2.6627769,0.6044655,4.0406837,0.2341614
			c0.4449692-0.1196442,0.8285942-0.2367973,1.192131-0.3644867c0.6419067,0.2237244,1.2796364,0.4070129,1.8982658,0.545208
			c0.9602776,0.2141762,1.9038658,0.3279991,2.8047447,0.337883c1.1004524,0.012001,2.1399651-0.1283913,3.0895195-0.4170074
			c0.4560928-0.1386719,0.8843346-0.3175316,1.2914581-0.5191154c0.5477753,0.1110382,1.1045494,0.177063,1.6622429,0.2109528
			c0.0165405,0.000988,0.0393066,0.0017204,0.0674133,0.0020523c0.0686951,0.0007668,0.1711006-0.0012817,0.2891312-0.0062981
			c0.2621574,0.1168976,0.5917664,0.2494583,0.9443932,0.2533379c0.4026604,0.0043564,0.7416382-0.1608887,0.9814339-0.4782715
			c0.2182732-0.2898979,0.2679749-0.6398926,0.1372795-0.9581909c-0.0320244-0.0784683-0.074295-0.153717-0.1271057-0.2253418
			c-0.0080147-0.1607399-0.0370407-0.3163223-0.0934753-0.4628258c1.332634,0.1665993,2.6265831,0.0587769,3.6974258-0.3180809
			c-0.3715897,1.1129341-1.2864838,1.4551659-2.6518364,1.5631332c1.0777245,1.1679764,2.8889961,0.7499466,2.8889961,0.7499466
			c0.6498451-0.1792984,1.2649231-0.5109215,1.7832375-0.988533c0.4238853-0.3905449,0.8326187-0.9722824,1.4493828-0.774868
			c0.364193,0.1166763,0.527935,0.4749756,0.7783432,0.7555428c0.3063698,0.3432236,0.679821,0.5941086,1.0885582,0.7505684
			c1.1480637,0.4393311,2.2774277-0.1768456,3.4947014,0.4423294
			C62.0529327,58.0617371,61.4210205,57.3487206,60.4411621,56.7769737z"/>
		<g>
			<path d="M17.8267174,19.1799278c0.2846069-0.7108765,0.427002-1.5333252,0.427002-2.4668579
				c0-1.4004517-0.3118896-2.4747925-0.9348755-3.2233276c-0.6234741-0.7484131-1.4112539-1.1226807-2.3633413-1.1226807
				c-0.4614258,0-0.8823242,0.0859375-1.2625732,0.2576904c-0.3804932,0.1716919-0.720459,0.4291992-1.0196533,0.7724609V9.308773
				H9.647275v11.798645h2.8050537v-1.2634888c0.3876953,0.5310669,0.7460327,0.8933105,1.0748901,1.0863037
				c0.4368286,0.2468262,0.9176636,0.3703613,1.4429932,0.3703613c0.6134033,0,1.171752-0.1758423,1.6748648-0.5271606
				C17.1481285,20.4221153,17.5420494,19.8908043,17.8267174,19.1799278z M14.8928804,18.4154015
				c-0.2429199,0.3245239-0.5436401,0.4867554-0.9017334,0.4867554c-0.3879395,0-0.708252-0.164917-0.9609375-0.494873
				c-0.2527466-0.3300171-0.3789673-0.8624268-0.3789673-1.5975952c0-0.6705933,0.1286621-1.1709595,0.3863525-1.5009766
				s0.59021-0.494873,0.9974976-0.494873c0.3387451,0,0.6270142,0.1582031,0.8650513,0.4746094
				c0.2380981,0.3167725,0.3571167,0.8129272,0.3571167,1.4889526
				C15.2572603,17.544857,15.1357393,18.0906944,14.8928804,18.4154015z"/>
			<path d="M21.6124229,16.3107872c-0.9376221,0.2039185-1.5805054,0.5149536-1.928894,0.9334106
				c-0.3485718,0.4185181-0.522644,0.9525146-0.522644,1.6015625c0,0.6923218,0.2415771,1.2744141,0.7251587,1.74646
				c0.4833984,0.472168,1.1914063,0.708374,2.1239014,0.708374c0.7018433,0,1.3178711-0.1181641,1.8479614-0.354248
				c0.3876343-0.177063,0.777832-0.4719238,1.1707153-0.8852539c0.0340576,0.2470093,0.0685425,0.4279785,0.1029053,0.5432739
				c0.0342407,0.1155396,0.1080322,0.2831421,0.2208862,0.5030518h2.8123169
				c-0.1570435-0.354248-0.2589722-0.6452026-0.305481-0.8734131c-0.0466309-0.2279053-0.0700073-0.5430298-0.0700073-0.9456177
				v-3.7744751c0-0.4023438-0.0735474-0.8249512-0.2207031-1.2675781c-0.1473389-0.442688-0.3485718-0.784668-0.6038208-1.026062
				c-0.3632813-0.3488159-0.8170776-0.578186-1.3620605-0.6881104c-0.5447388-0.1099243-1.2661743-0.1651001-2.1644897-0.1651001
				c-0.5593872,0-1.0797119,0.0456543-1.5606079,0.1367798c-0.4811401,0.0913086-0.8590698,0.2200317-1.1339111,0.3864136
				c-0.3827515,0.2306519-0.6762085,0.5029297-0.8796997,0.8168945c-0.2037964,0.3139038-0.3595581,0.7443848-0.4674683,1.291626
				l2.8637695,0.3299561c0.1177368-0.3701172,0.2723999-0.6221924,0.4639282-0.7565308
				c0.2453003-0.1714478,0.6133423-0.2575073,1.1043701-0.2575073c0.3827515,0,0.6501465,0.0806274,0.8023682,0.241394
				c0.1520996,0.1609497,0.2282104,0.442688,0.2282104,0.8452148c-0.3730469,0.1609497-0.7263794,0.2910156-1.0601807,0.3903809
				C23.4653282,15.8908043,22.7363853,16.063961,21.6124229,16.3107872z M24.859127,17.5742149
				c0,0.4077148-0.0601196,0.7391968-0.1804199,0.9940186s-0.3237915,0.4707642-0.611084,0.6478882
				c-0.2869873,0.177063-0.5974121,0.2655029-0.9311523,0.2655029c-0.3190918,0-0.5608521-0.0818481-0.7250977-0.2454834
				c-0.1645508-0.1633911-0.2467651-0.3742676-0.2467651-0.6317139c0-0.2252808,0.0834961-0.4265137,0.2502441-0.6036987
				c0.1620483-0.1716919,0.5472412-0.3460693,1.1560059-0.5230103c0.4465942-0.1233521,0.8759766-0.2657471,1.288269-0.4265137
				V17.5742149z"/>
			<path d="M33.2684288,19.5057945c-0.3682861,0-0.6627808-0.0830688-0.8834839-0.2494507
				c-0.2208862-0.1662598-0.3928223-0.442627-0.5153809-0.8291016l-2.9743652,0.3059082
				c0.1717529,0.8210449,0.5606689,1.4540405,1.1670532,1.899353c0.6060791,0.4456177,1.6231689,0.6680908,3.0515747,0.6680908
				c1.0109863,0,1.8096313-0.1380005,2.3963013-0.4141235c0.5865479-0.2758789,1.0159912-0.6472168,1.2883911-1.1134644
				c0.272522-0.4661865,0.4086304-0.946106,0.4086304-1.4393311c0-0.4874878-0.1288452-0.9351196-0.3866577-1.3425903
				c-0.2576904-0.4072876-0.6294556-0.7208252-1.1152344-0.9404297c-0.4859009-0.2199097-1.2271118-0.3914185-2.2233276-0.5148926
				c-0.6578369-0.0856934-1.0847168-0.1820068-1.2811279-0.2893066c-0.1962891-0.1069946-0.2944946-0.2650757-0.2944946-0.4740601
				c0-0.1873169,0.0773315-0.3466797,0.2319336-0.4779053c0.154541-0.1314697,0.4013062-0.1970215,0.7399292-0.1970215
				c0.3335571,0,0.6184082,0.0858154,0.8539429,0.2575684c0.1716919,0.1287231,0.2944946,0.3299561,0.368042,0.6035767
				l2.8419189-0.3058472c-0.1962891-0.5579224-0.4430542-1.0005493-0.7398071-1.3279419
				c-0.2971802-0.3272705-0.6677246-0.5686646-1.1118164-0.7243042c-0.4443359-0.1555786-1.1326904-0.2334595-2.0650635-0.2334595
				c-0.8834229,0-1.5877075,0.1005859-2.1130371,0.3016357c-0.5250854,0.2008667-0.9373779,0.505127-1.2368164,0.9123535
				c-0.2994995,0.4075928-0.4489746,0.8925171-0.4489746,1.4552612c0,0.5145874,0.1386108,0.9732056,0.4159546,1.3748779
				c0.2773438,0.4021606,0.6184692,0.6875,1.0233154,0.8563843c0.4048462,0.1688232,1.1275024,0.3522949,2.1682129,0.5507202
				c0.6968384,0.1339111,1.1264648,0.2463989,1.288208,0.3374634c0.2258911,0.12854,0.3386841,0.310791,0.3386841,0.5463867
				c0,0.2091675-0.0859375,0.3831787-0.2576904,0.5224609C33.9824181,19.4121666,33.6707726,19.5057945,33.2684288,19.5057945z"/>
			<path d="M40.0004845,20.8215904c0.593811,0.3193359,1.4086914,0.4790039,2.4442139,0.4790039
				c1.1928711,0,2.1080933-0.1866455,2.7462158-0.5594482c0.6379395-0.3728027,1.1826172-0.9885254,1.6343994-1.8470459
				l-2.9521484-0.2977295c-0.1866455,0.2574463-0.3608398,0.4371948-0.5228882,0.5391846
				c-0.2648926,0.1608887-0.5447388,0.2415161-0.8391724,0.2415161c-0.4664917,0-0.8442383-0.1851807-1.1339722-0.5552368
				c-0.2059937-0.2576904-0.3362427-0.649353-0.3901367-1.1752319h6.0075684v-0.3701172
				c0-1.126709-0.1692505-2.0415649-0.5079346-2.7443848c-0.3387451-0.7028198-0.8319702-1.239502-1.4797974-1.6096191
				c-0.6479492-0.3702393-1.531311-0.5554199-2.6503906-0.5554199c-1.3793945,0-2.4603882,0.413269-3.2431641,1.2394409
				s-1.1741943,1.9074097-1.1741943,3.2434692c0,0.9390259,0.1951294,1.7559204,0.5852661,2.4506836
				C38.914669,19.9954185,39.4065514,20.5024986,40.0004845,20.8215904z M41.3403282,14.9263878
				c0.284668-0.4130859,0.6651001-0.619751,1.1411743-0.619751c0.4122925,0,0.744751,0.1368408,0.9977417,0.4104004
				c0.2526855,0.2738647,0.4085083,0.7272949,0.4674072,1.3601685H40.994442
				C41.0433922,15.5676842,41.1587486,15.1838951,41.3403282,14.9263878z"/>
			<path d="M14.3699923,37.668087v-5.1286011c0-0.5466309-0.109436-1.1206665-0.3280029-1.722168
				c-0.218811-0.6014404-0.5177612-1.06604-0.8967285-1.3943481c-0.5394897-0.4736328-1.2138672-0.7852783-2.0228271-0.9347534
				c-0.8092041-0.149292-1.8808594-0.2241211-3.2149663-0.2241211c-0.8309937,0-1.6038208,0.0620117-2.3181152,0.1858521
				c-0.7145996,0.1239624-1.2758179,0.2989502-1.6840208,0.5248413c-0.5685425,0.3135376-1.0043335,0.6834106-1.3065796,1.1099243
				c-0.3027344,0.4265747-0.5342407,1.0112915-0.694519,1.7549438l4.2536621,0.4482422
				c0.1749268-0.5028076,0.4046021-0.8455811,0.6889648-1.02771c0.3643188-0.2332764,0.9110718-0.3498535,1.6401372-0.3498535
				c0.5686646,0,0.9658203,0.109375,1.1919556,0.3278809c0.2258911,0.21875,0.3389893,0.6014404,0.3389893,1.1483765
				c-0.5540771,0.2184448-1.0789185,0.3955078-1.574585,0.5302124c-0.4957891,0.1350708-1.5783696,0.3699341-3.2477422,0.7052002
				c-1.3922727,0.2772217-2.3472898,0.6998291-2.8648679,1.2685547c-0.5177002,0.5686646-0.7764282,1.2941284-0.7764282,2.1760254
				c0,0.9403687,0.3589478,1.7313843,1.0771484,2.3728027c0.7180176,0.6414185,1.769531,0.9624634,3.1547239,0.9624634
				c1.0423584,0,1.9573364-0.1607056,2.7446294-0.4814453c0.5758057-0.2405396,1.1552124-0.6413574,1.7384644-1.2025757
				c0.0510254,0.3353271,0.1021118,0.5811768,0.1533203,0.737915c0.0507813,0.1567993,0.1601563,0.3845215,0.3280029,0.6834717
				h4.177002c-0.2333984-0.4810181-0.3844604-0.8765869-0.4537964-1.1865845
				C14.4045382,38.6430016,14.3699923,38.2147179,14.3699923,37.668087z M10.0179415,35.3387413
				c0,0.5541992-0.0894165,1.0045166-0.2679443,1.3505249c-0.1786499,0.3463135-0.4810181,0.6395874-0.9075928,0.880127
				c-0.4264526,0.2408447-0.8875127,0.3609619-1.3832402,0.3609619c-0.473877,0-0.8328857-0.111145-1.0770264-0.3335571
				c-0.2443848-0.2223511-0.3664551-0.5084229-0.3664551-0.8583984c0-0.3060303,0.1240234-0.5793457,0.3718262-0.8198853
				c0.2405396-0.2333374,0.8128662-0.4703979,1.7168584-0.7108765c0.663208-0.1674194,1.3012695-0.3609619,1.9135742-0.5797119
				V35.3387413z"/>
			<rect x="16.7348595" y="24.1087608" width="4.4614258" height="16.0304565"/>
			<path d="M24.8682213,38.6814537c0.2514038,0.5790405,0.6395874,1.0101929,1.1644287,1.2941895
				c0.5249023,0.2839966,1.3412476,0.4262085,2.4494019,0.4262085c0.9550171,0,1.9828491-0.1204834,3.0836792-0.3609619
				l-0.3280029-3.0722656c-0.5905762,0.18927-1.0497437,0.2836304-1.3778687,0.2836304
				c-0.364563,0-0.6196289-0.1236572-0.7654419-0.3709106c-0.0947266-0.1599731-0.1420898-0.4871216-0.1420898-0.9819946v-4.1142578
				h2.4493408v-3.2585449h-2.4493408v-4.4177856l-4.4614868,2.2852783v2.1325073h-1.6401978v3.2585449h1.6401978v4.0842896
				C24.4908409,37.1652794,24.6166344,38.1027794,24.8682213,38.6814537z"/>
			<path d="M38.6031456,48.0076866c-0.2946167-0.2338257-0.5338135-0.147583-0.5338135-0.147583
				c-0.0302124,0.1350708,0.1705322,0.3782349,0.314209,0.7504272c0.1436157,0.3721924,0.4434814,0.5524292,0.5278931,0.1744995
				C38.9957848,48.4071617,38.7871666,48.1537437,38.6031456,48.0076866z"/>
			<path d="M35.84338,47.6462364c0.0081787-0.0046387,0.015625-0.0092163,0.0239258-0.013916
				c0.159729-0.0898438,0.3200073-0.1241455,0.4343262-0.1480103c0.116333-0.0244141,0.1852417-0.0380249,0.1569824-0.0883179
				c-0.0206909-0.0368042-0.0857544-0.0745239-0.1751709-0.098877c-0.1259766-0.0343628-0.3007202-0.0407104-0.4721069,0.0210571
				c-0.0376587,0.0134888-0.0750732,0.0293579-0.1118164,0.0499268c-0.3223877,0.1813965-0.4907227,0.4354858-0.4346313,0.5352783
				C35.3196983,48.0006676,35.5342979,47.8231163,35.84338,47.6462364z"/>
			<path d="M37.4533653,48.6687584c-0.0072021-0.0806885-0.0321655-0.1574707-0.0874023-0.229126
				c0.1669312-0.0119019,0.2874756-0.0643921,0.3104858-0.1533203c0.039978-0.1553955-0.2272949-0.3585815-0.5970459-0.4539795
				c-0.3521118-0.0909424-0.6670532-0.0500488-0.7313232,0.0880737c-0.0032349,0.006897-0.0088501,0.0128784-0.0108032,0.0203247
				c-0.0100098,0.0390625,0.00177,0.0811157,0.0280762,0.1237183c0.0204468,0.0332642,0.0491333,0.0668945,0.0874023,0.0997925
				c-0.0016479,0.0004883-0.0033569,0.0010376-0.0050659,0.0014648c-0.0234375,0.0071411-0.0444946,0.0189209-0.0656128,0.0303345
				c-0.0380249,0.0202637-0.0740967,0.0444336-0.1064453,0.0744629c-0.0892944-0.0020752-0.2189331-0.0004883-0.3580933,0.0134888
				c-0.2120972,0.0214844-0.4465332,0.0724487-0.5964966,0.1896362c0.2470703-0.0256348,0.4592896-0.0172119,0.6220703-0.0003052
				c0.0640259,0.0066528,0.1221313,0.0142822,0.1690674,0.0221558c-0.0079956,0.0159912-0.0145874,0.0327148-0.0218506,0.0491943
				c-0.0342407,0.0072021-0.0811768,0.0184326-0.1322632,0.0315552c-0.237915,0.0612793-0.6171265,0.1881104-0.788269,0.40802
				c0.3607178-0.1315308,0.6645508-0.1661987,0.8232422-0.1751099c0.0020752-0.0001221,0.0053101-0.0004883,0.0073242-0.0006104
				c-0.0015869,0.0060425-0.0028687,0.0119629-0.0044556,0.0181274c-0.0046997,0.0184326-0.0095825,0.0370483-0.0135498,0.0551147
				c-0.1797485,0.0719604-0.6759644,0.2927856-0.8358154,0.5947876c0.3479614-0.2009888,0.651001-0.2862549,0.7991943-0.3193359
				c-0.0059204,0.184082,0.0350342,0.3319092,0.1071167,0.444397c-0.0996094,0.0203857-0.1741943,0.0691528-0.2000122,0.1428833
				c-0.0530396,0.1514282,0.1168823,0.3488159,0.3797607,0.440918c0.0164185,0.0057373,0.0317993,0.0061646,0.0480957,0.0108643
				c0.2009277,0.057373,0.3843384,0.0336304,0.4733887-0.0551147c0.0194702-0.0195923,0.0413818-0.0376587,0.050354-0.0631714
				c0.0255737-0.0727539-0.0015869-0.156189-0.0648193-0.2334595c0.1601563-0.0411377,0.31427-0.1384277,0.4349365-0.2880859
				c0.0855713,0.0957031,0.3006592,0.3588867,0.4745483,0.7670898c0.0579224-0.3648071-0.255249-0.8897095-0.3317871-1.0112305
				c0.0078735-0.019104,0.0144653-0.0394287,0.0212402-0.0595703c0.1099854,0.0884399,0.3568726,0.3085938,0.5877075,0.663269
				c-0.0063477-0.3765259-0.4204102-0.848938-0.5065308-0.9432373c0.0027466-0.0110474,0.0053711-0.0220947,0.0079346-0.0330811
				c0.1445313,0.071228,0.4073486,0.22052,0.6844482,0.4771118C38.0271568,49.1019859,37.62817,48.7921104,37.4533653,48.6687584z"
				/>
			<path d="M60.4411583,56.7769737c-0.9798584-0.5717163-1.8240356-0.0855713-1.5735474-2.6509399
				c0.1793823-1.8379517-0.7403564-3.2592163-1.9852295-4.1862793C55.5639,48.958004,54.037838,48.8392296,52.456356,48.1015587
				c-1.3577881-0.6333618-2.0133667-1.3220215-3.3792114-2.4960938c-0.5946045-3.081604,0.8787842-6.9234619,0.9835815-9.2506104
				c0.0388184-0.8614502-0.0285034-1.7412109-0.1638184-2.5922241c-0.2770386-1.7443848-1.5155029-3.8126831-0.307373-5.4194336
				c0.140625-0.1871948,0.2988892-0.3131714,0.508667-0.5135498c0.6410522-0.6124878,1.2478027-1.3973999,1.3475342-2.3052979
				c0.0233765-0.2119141,0.0203247-0.3843994,0.0327148-0.5085449c0.1721802-0.1934814,0.2744141-0.4899292,0.2425537-0.7451782
				c-0.0161133-0.1276245-0.0656128-0.2450562-0.1566162-0.3340454c-0.0911865-0.0891113-0.2236328-0.1498413-0.4060059-0.1642456
				c0.0170898,0.0501709,0.0289917,0.1028442,0.0337524,0.1574707c0.0046997,0.0545654,0.0020752,0.111145-0.0097656,0.1691895
				c-0.0179443,0.0869751-0.0570068,0.1773682-0.1245728,0.2692871c-0.022522,0.0306396-0.0482178,0.0614624-0.0773315,0.0923462
				c0.0060425-0.0320435,0.008728-0.0635376,0.0081787-0.0944824c-0.0005493-0.0308838-0.0042114-0.0612793-0.0106201-0.0908813
				c-0.019165-0.0891113-0.0628662-0.1724243-0.1206665-0.2490234c-0.0554199-0.0734253-0.1237793-0.1403198-0.1956177-0.2003784
				c-0.0031128-0.0025635-0.0060425-0.0053711-0.0090942-0.0079346c-0.2846069,0.0462646-0.5698853,0.0632324-0.887085,0.0576782
				c-0.1906738-0.003479-0.3927612-0.0148926-0.6132813-0.0332031c-0.4404907-0.036377-0.9540405-0.0995483-1.5947266-0.1777954
				c-1.0897217-0.1330566-2.1983643-0.2166138-3.2764282,0.0431519c-1.5300903,0.3687134-2.7415161,1.4038696-3.2528076,2.9153442
				c-0.3702393,1.0942993-0.4417114,2.2526855-0.6871338,3.3753052c-0.142334,0.6514893-0.8607178,1.8635864-1.9290771,3.1881104
				c-0.3679199-0.0415649-0.7918091-0.0574951-1.3106079-0.0258789c-2.3621216,0.1439819-2.7774048-0.0425415-3.1806641-0.1057739
				c-0.1343994-0.0210571-0.2668457-0.0463257-0.3951416-0.0759888c-0.0407104,0.0420532-0.0794678,0.0871582-0.1137085,0.1345825
				c-0.0683594,0.0946655-0.1184692,0.1987915-0.1293335,0.3076782c-0.0054932,0.0545044-0.0012207,0.1100464,0.0155029,0.1665039
				c-0.2493896-0.21698-0.2745361-0.4487915-0.2197266-0.6461182c0.0078125-0.0281982,0.0172119-0.055603,0.0278931-0.0822144
				c-0.0144653-0.0050049-0.0300293-0.0091553-0.0442505-0.0142212c-0.1547852-0.0558472-0.276062-0.0619507-0.3686523-0.0319214
				c-0.0926514,0.0299683-0.1564941,0.0961914-0.1964722,0.1849365c-0.017395,0.0383911-0.03125,0.076416-0.0419312,0.1141357
				c-0.0106201,0.0375977-0.0181885,0.0749512-0.0227661,0.1118164c-0.0091553,0.0736694-0.0064697,0.1456909,0.0057373,0.2158813
				c0.0061646,0.0351563,0.0147095,0.0697021,0.0253296,0.1038818c0.0159912,0.0510254,0.0380859,0.1005859,0.0627441,0.149353
				c0.0187988,0.0369873,0.0395508,0.0734253,0.062439,0.1090698c0.0128174,0.0199585,0.0258179,0.0396729,0.0397949,0.059082
				c0.1700439,0.2382202,0.5166626,0.7280884,1.5778809,1.1742554c-0.3096924,0.0548096-0.9433594-0.0483398-1.6541138-0.6471558
				c-0.8658447,1.1735229,1.4459839,2.2907715,2.5081177,3.5137329c0.3220215,0.3707886,0.5866089,0.741333,0.8015747,1.1283569
				c-0.2999878,0.6101685-0.7056274,1.1384888-1.0566406,1.4542236c-0.7542114,0.6785278-2.0911255,1.5375366-3.8555908,2.7298584
				c-1.7644043,1.1923828-3.0077515,2.5352173-4.0882568,4.307251c-0.1907959,0.3128662-0.3494873,0.6404419-0.4780884,0.9780884
				c-0.3858643,1.0126343-0.5014648,2.1152344-0.4015503,3.1787109c0.1303711,1.3876953,0.4713745,2.9713135-0.8331909,3.8208618
				c-0.5087891,0.3314819-3.3297729,1.1477051-4.1195679,3.534729c1.9743652-1.1934814,3.1289673-0.4520874,4.6199341-0.7957153
				c1.3426514-0.3093262,2.0929565-1.4144897,1.9977417-2.6522217c0.0838623,1.3258057,0.592041,2.5588379,1.7559204,3.0662842
				c0.5271606,0.2297974,1.2008057,0.3261108,2.3334961,0.0498047c1.3673096,0.258606,2.6647339,0.6047974,4.043457,0.2342529
				c0.4449463-0.1196289,0.8285522-0.2367554,1.1921387-0.3644409c0.6419067,0.2236938,1.2796021,0.4069824,1.8982544,0.545166
				c0.9602661,0.2141724,1.9038696,0.3280029,2.8047485,0.3378906c1.1004028,0.0120239,2.1399536-0.128418,3.0894775-0.4169922
				c0.4561157-0.1386719,0.8843384-0.3175049,1.2915039-0.519104c0.5477295,0.1110229,1.1045532,0.177063,1.6622314,0.2109375
				c0.0165405,0.0009766,0.0393066,0.001709,0.0673828,0.0020752c0.0687256,0.0007324,0.1711426-0.0012817,0.2891235-0.0062866
				c0.262207,0.1168823,0.5917969,0.2493896,0.944397,0.2532959c0.40271,0.0043335,0.7416382-0.1608887,0.9814453-0.4782715
				c0.2182617-0.289917,0.2680054-0.6398926,0.1372681-0.9581909c-0.0319824-0.0784302-0.0742798-0.1536865-0.1270752-0.2253418
				c-0.0080566-0.1607056-0.0370483-0.3162842-0.0935059-0.4628296c1.3326416,0.166626,2.6265869,0.0587769,3.6974487-0.3180542
				c-0.371582,1.112915-1.286499,1.4551392-2.6518555,1.5631104c1.0777588,1.1679688,2.8890381,0.749939,2.8890381,0.749939
				c0.6498413-0.1792603,1.2648926-0.5109253,1.7832031-0.9885254c0.4238892-0.390564,0.8326416-0.97229,1.4494019-0.7748413
				c0.3641968,0.1166382,0.5279541,0.4749756,0.7783203,0.7555542c0.3063965,0.3432007,0.6798096,0.5940552,1.088562,0.7505493
				c1.1480713,0.4393311,2.2774658-0.1768799,3.4946899,0.4423218
				C62.0529137,58.0617638,61.4210167,57.3487511,60.4411583,56.7769737z M40.7441978,30.5668907
				c0.44104-0.8943481,0.6659546-1.9003906,0.9121094-2.6512451c0.0240479-0.0734253,0.0523682-0.1456909,0.0791016-0.2184448
				c0.3805542,0.1498413,0.8613281-0.12146,1.0864258-0.6224365c0.1940918-0.4320068,0.1331177-0.8917847-0.1205444-1.1296387
				c0.9023438-1.1508179,2.2056274-1.9173584,3.7796021-1.7446899c1.522522,0.1669922,2.2509155,0.1769409,3.9732666-0.0882568
				c-0.5485229,0.6378784-1.5847168,0.7119141-2.2603149,0.6027222c0.1814575,0.1526489,0.2666016,0.3208618,0.2666016,0.3208618
				s-0.5772705,1.3759155-2.0792847,0.5611572c0.6400757,0.1738281,1.1732788,0.2376099,1.7009277-0.6660767
				c-0.6438599-0.5501099-1.5203247-0.258667-1.7137451,0.0212402c-0.255127,0.3689575-0.6069946,0.4871216-1.1152954,1.0175781
				c-0.5083618,0.5303955-0.6990356,1.5408936-0.6990356,1.5408936s-0.2071533-0.3916016,0.1436768-1.2914429
				c-0.6160278,0.5241089-1.0332642,1.0910034-1.3519897,1.7807617c-0.4180298,0.9048462-0.59021,3.3184204,0.6199951,5.4697266
				c-0.7018433-0.6188965-1.3234253-1.6394653-1.4090576-3.0942993c-0.7984619,2.1325684-0.0424805,4.8538208,0.8283081,6.6446533
				c0.8707886,1.7909546,1.0362549,2.4962769,1.5692139,3.5212402c0.6681519,1.2849121,1.6479492,2.668457,2.6746216,3.8630371
				c-1.5418091-1.2661743-2.0489502-1.9433594-2.9425049-3.4802856c-0.493103-0.8480835-1.3327637-2.630188-1.5873413-3.1726685
				c-0.0447998-0.0953979-0.090332-0.1921387-0.1361694-0.2895508c-0.4889526-1.0402832-1.0308838-2.1428833-1.8865356-2.9351807
				c-0.1364746-0.1264648-0.2769775-0.2428589-0.4224243-0.348999c-0.416687-0.3040771-0.8496704-0.7161865-1.7783203-0.9151611
				C39.3290367,32.7304039,40.0201988,32.0350304,40.7441978,30.5668907z M47.0411949,25.1470909
				c0.0266724,0.1052246,0.0933838,0.1746216,0.1784058,0.206604c-0.0125122,0.0087891-0.022644,0.0203247-0.0359497,0.0281372
				c-0.1842041,0.1072998-0.3643188,0.0723267-0.4024048-0.0782471c-0.038208-0.1504517,0.0802002-0.3595581,0.2644043-0.467041
				c0.0113525-0.0066528,0.0221558-0.0078735,0.0335693-0.0134888
				C47.0337486,24.930294,47.0154991,25.0451622,47.0411949,25.1470909z M29.4976768,52.1192589
				c-0.8612061,0.4401855-1.6075439,0.9377441-1.8743896,2.1851196c0.0415649-0.1942749-0.670166-2.3334961-0.7058716-2.7116699
				c-0.3930054-4.1555176,2.5923462-6.4082642,5.3496094-8.34021c0.4177856-0.2612915,0.8305054-0.539917,1.2277832-0.7946777
				c1.3184204-0.8458252,2.2056274-1.7756348,2.6950073-2.7069702c0.2459106,0.7090454,0.3204346,1.5080566,0.1862183,2.5056152
				c-0.3283081,2.440979-0.0040894,3.2955933-0.0040894,3.2955933s-1.5046387,0.3399658-2.5386963,2.4515381
				c-0.2089233,0.5839233-0.5018921,1.4505005-0.6712646,2.1618652c-0.0570068,0.2393188-0.1083984,0.5114746-0.1551514,0.7954102
				c-0.5402222,0.4068604-1.1164551,0.6964722-1.652832,0.7947998c0.574585-0.4862671,1.0549316-1.5877075,1.144043-2.093689
				c-0.3869019,0.4398804-0.760376,0.8471069-1.1399536,1.1751099
				C30.7481041,51.4149132,30.2358971,51.7419395,29.4976768,52.1192589z M39.1292686,58.3519859
				c-0.4987183-0.1065063-1.0183716-0.2429199-1.5627441-0.4204102c-0.0615845-0.0200806-0.121521-0.0372925-0.1837158-0.0584717
				c0.2283325-0.0927124,0.460144-0.1932373,0.7078247-0.3077393c0.3370361-0.1558838,0.576416-0.5466919,0.7409058-0.9765625
				c0.1237183-0.3232422,0.2041016-0.6658936,0.251709-0.9504395c0.0148926-0.0881958,0.0267334-0.1705322,0.0354614-0.2445068
				c0.0266113-0.2276611,0.0263672-0.3787842,0.0056763-0.376709c-0.0148926,0.0015259-0.0474243,0.0714111-0.0952148,0.1849365
				c-0.0380249,0.0901489-0.0869141,0.2096558-0.1439209,0.3440552c-0.1438599,0.3390503-0.3453979,0.777832-0.5927734,1.1361084
				c-0.177063,0.2564087-0.3765869,0.4711304-0.5957642,0.5724487c-0.7416992,0.3431396-1.123291,0.6094971-1.8651123,0.8405762
				c-0.0823364,0.0256958-0.1657104,0.0512085-0.2580566,0.0761108c-0.8803101,0.2368774-1.3625488,0.2171021-2.032959,0.0501709
				c-0.0126953-0.0032959-0.026062-0.0068359-0.0390015-0.0101318c-0.0543823-0.013855-0.1071167-0.0266113-0.1644287-0.0422974
				c-0.2573853-0.0704956-0.4646606-0.1140747-0.642395-0.1437378c-0.1769409-0.029541-0.324585-0.0453491-0.4629517-0.0601196
				c-0.1703491-0.0181885-0.3361816-0.0384521-0.5310669-0.0784912c-0.1138306-0.3492432-0.0812988-0.7633057,0.09375-1.1072998
				c0.4311523-0.3938599,1.1784058-0.3449097,1.7387695-0.1596069c0.8125,0.2683105,1.3233032,0.0629883,1.6147461-0.2808838
				c0.0293579-0.03479,0.0592651-0.0710449,0.0917969-0.1073608c0.3818359-0.4256592,0.272583-0.9227905,0.1496582-1.5110474
				c-0.0640259-0.3066406-0.1305542-0.6380005-0.1343994-0.9973145c-0.0009766-0.0847778,0.0006104-0.1705322,0.0076294-0.2584229
				c-0.0316162-0.0134277-0.1086426,0.0963745-0.1784668,0.2871094c-0.0819702,0.223877-0.1499634,0.5639648-0.1239624,0.973938
				c0.0021973,0.034729,0.0012817,0.0673828,0.0049438,0.1031494l0.0148315,0.1430054
				c0.067627,0.6466675,0.0690308,0.6591797-0.2128296,0.9810791c-0.0330811,0.0379028-0.0644531,0.0748901-0.0949097,0.1108398
				c-0.0093384,0.0109253-0.0181274,0.0213623-0.0272217,0.0319214c-0.0646973-0.0455322-0.2085571-0.1702881-0.3710327-0.3920898
				c-1.3459473-3.6343994,0.225647-6.208313,0.3197632-6.5133057c-0.2134399,0.3655396-0.4768066,0.7089844-0.7661743,1.0237427
				c0.1588135-0.5484619,0.3731079-1.0979004,0.6587524-1.6636963c0.0196533-0.0388794,0.0427246-0.0788574,0.0628662-0.1179199
				c0.0842285-0.1622925,0.1668701-0.3240356,0.2615356-0.489624c0.2437744-0.4257813,0.5167847-0.7296753,0.7993164-0.9509888
				c0.1463623-0.114624,0.2946777-0.2075195,0.4438477-0.2788086c0.1541138-0.0737305,0.3080444-0.1283569,0.4593506-0.1643677
				c0.2167358-0.0515747,0.427063-0.0687866,0.6238403-0.0647583c0.4608765,0.0094604,0.8449097,0.1343384,1.041687,0.2139893
				c1.2006226,0.4863892,1.7696533,1.4750977,1.4852905,2.5804443c-0.0704956,0.2736816-0.1507568,0.5280151-0.2284546,0.7741089
				c-0.3240967,1.0272827-0.4122314,1.7940674,0.5757446,2.4519653c0.4285889,0.2850342,0.8670654,0.3758545,1.664917,0.6505127
				C42.1183434,55.3211021,40.735836,57.5809898,39.1292686,58.3519859z M49.3671837,58.023922
				c-0.0339355,0.0448608-0.072876,0.0762939-0.1141968,0.1019287c-0.2255249,0.1394653-0.5563354,0.0137939-0.9550171-0.1674194
				c-0.0687256-0.03125-0.1342163-0.0609741-0.1947021-0.0859985c-0.1766968-0.072876-0.3240356-0.124939-0.4580688-0.1640625
				c-0.2666016-0.0776978-0.4760742-0.0997314-0.7276611-0.1034546c0.1618042-0.1114502,0.2340698-0.2515259,0.2590942-0.3699951
				c0.0246582-0.1158447,0.0041504-0.2112427-0.0231323-0.2387085c-0.0056763-0.0054932-0.0454712,0.0217896-0.116394,0.071167
				c-0.1885986,0.1314697-0.6078491,0.4265137-1.2546387,0.7271729c-0.2774658,0.1289673-0.597168,0.2580566-0.9581909,0.3760986
				c-0.543335,0.1776123-1.5787964,0.322876-2.6535645,0.3989258c2.0023193-0.5853271,3.2139893-2.4851685,3.7197876-3.0568848
				c0.8546143,0.0883789,1.3932495,0.7880859,1.6182251,0.9511719c0.2603149,0.1887207,0.5320435,0.2997437,1.0614624,0.3890991
				c0.5553589,0.0941162,0.637207,0.2149658,0.6490479,0.4682617c-0.1986084-0.1002197-0.6676636-0.1790161-0.8887329-0.0517578
				c0.5062866,0.0328369,0.9973755,0.3868408,1.0730591,0.5720825
				C49.4201012,57.8818932,49.4309654,57.9394493,49.3671837,58.023922z M50.1531334,50.7775841
				c-1.5095215-0.6095581-1.6330566-1.2602539-2.0021973-1.6522827c-0.3162231-0.3359375-0.8080444-0.5629883-1.0698242-0.0588989
				c-0.2293091,0.4415283-0.0162354,0.9445801,0.0254517,1.4024658c0.0728149,0.7980957-0.3088379,1.5655518-0.7351074,2.2145386
				c-0.1290283,0.196228-0.3297119,0.5270996-0.5897827,0.9284668c0.2035522-0.7003784,0.383728-1.5582886,0.4476929-2.5343018
				c-0.425354,1.5513916-1.2896729,3.3287964-1.9597168,4.5797729c-0.9425049,1.0844727-2.112854,2.0631714-3.3845825,2.2022095
				c1.0853271-1.1861572,1.4697876-2.4746704,1.6372681-3.4834595c-0.1113892-0.9784546-0.2531128-3.3078613,0.6752319-4.8079834
				c-0.1845703,0.5571899-0.2415161,1.2669678-0.2318115,1.9769897c0.0725098-0.253418,0.1557617-0.5033569,0.2680664-0.7423096
				c0.3588257-0.763916,0.9932861-1.2561646,1.5690918-1.8475952c0.5809326-0.5968018,0.1706543-1.2648315-0.4784546-1.5817261
				c-0.9783325-0.4775391-3.1343994-2.6613159-3.7531738-6.595459c-0.2600708,1.1026611-0.1733398,2.4720459-0.0202026,3.2941284
				c-1.053772-2.1546021-0.4609985-4.7121582-0.7954102-7.0252686c-0.1876221-1.2981567-0.8427734-2.2848511-2.1532593-2.6251831
				c-0.2977905-0.0773315-0.6040649-0.1217041-0.9101563-0.1484375c-0.0162964-0.0014038-0.0308228-0.0039673-0.0473022-0.0053101
				c-0.1780396,0.0568848-0.3733521,0.1605225-0.5206909,0.359314c0.0807495,0.1276245,0.1765137,0.225769,0.2799072,0.3016968
				c0.1065674,0.0783081,0.2212524,0.1330566,0.3369141,0.1699219c0.088501-0.0552368,0.1533813-0.1446533,0.1720581-0.2689819
				c0.0202637-0.1346436-0.0181885-0.2803345-0.0906372-0.4125977c0.0154419,0.0057373,0.029541,0.0059204,0.045105,0.0130615
				c0.2510986,0.1147461,0.430542,0.3690186,0.4008179,0.5679932c-0.0122681,0.081604-0.0634155,0.1347046-0.130188,0.1687012
				c0.2998047,0.0125732,0.5352173-0.0524292,0.5352173-0.0524292s-0.6785278,0.4004517-1.1096802,0.1854248
				c-0.0814209-0.0406494-0.161499-0.0842285-0.239563-0.1280518c-0.2568359-0.1443481-0.477356-0.2896729-0.5679321-0.3510132
				c-0.0275269-0.0187378-0.046936-0.0320435-0.046936-0.0320435s0.0704956-0.1806641,0.2424927-0.3450928
				c0.0773926-0.0739136,0.1730957-0.1448364,0.2957153-0.1940918c0.0043945-0.001709,0.0090942-0.0025024,0.0135498-0.0043335
				c-0.0179443-0.0006104-0.0338745-0.0024414-0.0519409-0.0029907c-0.050293-0.0015259-0.09552-0.005249-0.1433716-0.0079346
				c-1.5238647-0.0834351-1.7614136-0.7029419-1.7614136-0.7029419c0.5737915,0.2194824,1.3025513,0.2012329,2.1175537,0.1618652
				c0.2185059-0.0105591,0.4424438-0.0215454,0.6723633-0.0311279c0.1212769-0.0050049,0.2428589-0.0099487,0.3667603-0.0128784
				c1.2002563-0.0288696,2.2212524,0.4389648,3.130188,1.6011963c-0.0415039,0.0151367-0.0808105,0.0346069-0.1151123,0.0627441
				c-0.2633057,0.2161255-0.1901855,0.7407837,0.1635742,1.1716919c0.0076294,0.0092773,0.0160522,0.0167236,0.0237427,0.0256958
				c0.1546021,0.1804199,0.333374,0.3119507,0.5081787,0.3848877c0.1975708,0.0823975,0.388916,0.0914917,0.5307007,0.0100708
				c0.0262451,0.0462036,0.0523071,0.093811,0.0784302,0.1408081c0.3346558,0.602417,0.6653442,1.2736206,1.1281128,2.1832886
				c0.5942383,1.1679077,1.0855713,2.3980713,1.8164063,3.4915771c0.7962646,1.1912231,2.0704346,1.9794922,3.1782227,2.8800049
				c0.7636719,0.6207886,1.4518433,1.2687378,2.2132568,1.8577881l0.0005493,0.0012207
				c0.1741943,0.1425171,0.6754761,0.5233765,0.8624878,0.6555176c1.4450073,1.0206299,3.1791992,0.8531494,4.6131592,2.1062622
				C53.1484337,50.2399254,51.6627159,51.3870811,50.1531334,50.7775841z"/>
		</g>
	</g>
</g>
</svg>
